<?xml version="1.0" encoding="utf-8"?>
<!-- Generator: Adobe Illustrator 25.2.0, SVG Export Plug-In . SVG Version: 6.00 Build 0)  -->
<svg version="1.1" id="图层_1" xmlns="http://www.w3.org/2000/svg" xmlns:xlink="http://www.w3.org/1999/xlink" x="0px" y="0px"
	 viewBox="0 0 262.53 253.79" style="enable-background:new 0 0 262.53 253.79;" xml:space="preserve">
<style type="text/css">
	.st0{fill:#7ECEF4;}
	.st1{fill:#00A0E9;}
	.st2{fill:#F8FCFE;}
	.st3{fill:#2568B2;}
	.st4{fill:#24873B;}
	.st5{fill:#33BAED;}
	.st6{fill:#53B332;}
	.st7{fill:#87C467;}
	.st8{fill:#EC6B3E;stroke:#FFFFFF;stroke-width:7.3756;stroke-linecap:round;stroke-linejoin:round;stroke-miterlimit:10;}
	.st9{fill:none;stroke:#FFFFFF;stroke-width:7.3756;stroke-linecap:round;stroke-linejoin:round;stroke-miterlimit:10;}
	.st10{fill:#EC6B3E;stroke:#FFFFFF;stroke-width:3.5;stroke-linecap:round;stroke-linejoin:round;stroke-miterlimit:10;}
	.st11{opacity:0.15;fill:#F7F8F8;}
	.st12{opacity:0.15;}
	.st13{fill:#F7F8F8;}
	.st14{fill:#00A0E9;stroke:#00A0E9;stroke-width:2;stroke-miterlimit:10;}
	.st15{fill:#FFFFFF;stroke:#FFFFFF;stroke-width:2;stroke-miterlimit:10;}
	.st16{fill:none;stroke:#F7F8F8;stroke-width:2.0155;stroke-miterlimit:10;}
</style>
<g>
	<circle class="st8" cx="164.46" cy="151.57" r="73.5"/>
	<line class="st9" x1="101.51" y1="113.61" x2="228.85" y2="187.04"/>
	<path class="st9" d="M199.16,90.62c-5.09,18.95-13.74,43.6-28.99,70.08c-13.08,22.71-27.34,40.38-39.49,53.41"/>
	<path class="st9" d="M144.6,82.63c5.34,8.46,24.31,36.15,59.12,44.28c10.66,2.49,20.32,2.56,28.08,1.83"/>
	<path class="st9" d="M94.61,166.86c4.26-0.54,50.01-5.64,75.78,26.25c8.26,10.21,11.96,21.12,13.72,29.29"/>
</g>
<g>
	<polygon id="XMLID_18_" class="st10" points="17.08,113.15 51.6,131.09 50.07,116.44 79.62,128.48 41.7,98.18 40.55,115.96 	"/>
	<polygon id="XMLID_15_" class="st10" points="83.6,14.11 96.77,50.71 105.6,38.92 119.12,67.82 111.84,19.83 98.93,32.11 	"/>
	<polygon id="XMLID_9_" class="st10" points="21.78,39.3 45.11,70.44 50.09,56.57 71.5,80.23 50.46,36.49 41.72,52.01 	"/>
</g>
</svg>
