<svg id="图层_1" data-name="图层 1" xmlns="http://www.w3.org/2000/svg" viewBox="0 0 1020.47 435.72"><defs><style>.cls-1,.cls-3{fill:#f7f8f8;}.cls-1,.cls-2{opacity:0.15;}</style></defs><path class="cls-1" d="M859.68-61.33l-.39,4.11C842.08,123.58,692,259.93,510.23,259.93s-331.84-136.35-349-317.15l-.39-4.11H143.73v19l0,.6a367.1,367.1,0,0,0,25.85,94.91,368.43,368.43,0,0,0,79.22,117.5,368.43,368.43,0,0,0,117.5,79.22,367.32,367.32,0,0,0,143.89,29,367.33,367.33,0,0,0,143.9-29,368.43,368.43,0,0,0,117.5-79.22,368.43,368.43,0,0,0,79.22-117.5A367.1,367.1,0,0,0,876.7-41.73l0-19.6Z"/><g class="cls-2"><path class="cls-3" d="M1011.13-61.33l-.24,2.51C986.2,200.51,771,396.08,510.24,396.08S34.27,200.51,9.58-58.82l-.23-2.51H-7.9V-38l0,.36A518.64,518.64,0,0,0,28.67,96.58a520.94,520.94,0,0,0,112,166.13,521,521,0,0,0,166.13,112,519.29,519.29,0,0,0,203.44,41.08,519.32,519.32,0,0,0,203.44-41.08,521.06,521.06,0,0,0,166.12-112,520.94,520.94,0,0,0,112-166.13A518.66,518.66,0,0,0,1028.35-37.6l0-23.73Z"/></g></svg>